HIERARCHY
ROOT hip
{
	OFFSET 0.000000 0.000000 0.000000 
	CHANNELS 6 Xposition Yposition Zposition Xrotation Zrotation Yrotation
	JOINT abdomen
	{
		OFFSET 0.000000 3.402643 0.000000 
		CHANNELS 3 Xrotation Zrotation Yrotation
		JOINT chest
		{
			OFFSET 0.000000 8.438565 -0.680529 
			CHANNELS 3 Xrotation Zrotation Yrotation
			JOINT neck
			{
				OFFSET 0.000000 10.207942 -0.272212 
				CHANNELS 3 Xrotation Zrotation Yrotation
				JOINT head
				{
					OFFSET 0.000000 3.130431 0.000000 
					CHANNELS 3 Xrotation Zrotation Yrotation
					End Site
					{
						OFFSET 0.000000 3.130435 0.000000 
					}
				}
			}
			JOINT lCollar
			{
				OFFSET 3.470700 6.669187 -0.816635 
				CHANNELS 3 Yrotation Zrotation Xrotation
				JOINT lShldr
				{
					OFFSET 3.198488 0.000000 0.000000 
					CHANNELS 3 Zrotation Yrotation Xrotation
					JOINT lForeArm
					{
						OFFSET 10.139888 0.000000 0.000000 
						CHANNELS 3 Yrotation Zrotation Xrotation
						JOINT lHand
						{
							OFFSET 8.370511 0.000000 0.000000 
							CHANNELS 3 Zrotation Yrotation Xrotation
							End Site
							{
								OFFSET 4.083176 0.000000 0.000000 
							}
						}
					}
				}
			}
			JOINT rCollar
			{
				OFFSET -3.470700 6.669187 -0.816635 
				CHANNELS 3 Yrotation Zrotation Xrotation
				JOINT rShldr
				{
					OFFSET -3.198488 0.000000 0.000000 
					CHANNELS 3 Zrotation Yrotation Xrotation
					JOINT rForeArm
					{
						OFFSET -10.139888 0.000000 0.000000 
						CHANNELS 3 Yrotation Zrotation Xrotation
						JOINT rHand
						{
							OFFSET -8.370511 0.000000 0.000000 
							CHANNELS 3 Zrotation Yrotation Xrotation
							End Site
							{
								OFFSET -4.083176 0.000000 0.000000 
							}
						}
					}
				}
			}
		}
	}
	JOINT lThigh
	{
		OFFSET 5.308129 -1.633274 1.361059 
		CHANNELS 3 Xrotation Zrotation Yrotation
		JOINT lShin
		{
			OFFSET -2.041588 -20.007561 0.000000 
			CHANNELS 3 Xrotation Zrotation Yrotation
			JOINT lFoot
			{
				OFFSET 0.000000 -19.190928 -1.224953 
				CHANNELS 3 Xrotation Yrotation Zrotation
				End Site
				{
					OFFSET 0.000000 -2.449906 4.627600 
				}
			}
		}
	}
	JOINT rThigh
	{
		OFFSET -5.308129 -1.633274 1.361059 
		CHANNELS 3 Xrotation Zrotation Yrotation
		JOINT rShin
		{
			OFFSET 2.041588 -20.007561 0.000000 
			CHANNELS 3 Xrotation Zrotation Yrotation
			JOINT rFoot
			{
				OFFSET 0.000000 -19.190928 -1.224953 
				CHANNELS 3 Xrotation Yrotation Zrotation
				End Site
				{
					OFFSET 0.000000 -2.449906 4.627600 
				}
			}
		}
	}
}
MOTION
Frames: 16
Frame Time: 0.011111
38.392075 28.694023 24.877239 -15.816944 -24.037516 -56.193501 65.952690 -5.974049 -0.981464 -21.104273 4.340125 0.472807 5.719730 -11.596127 -17.861225 26.166382 37.131935 -27.005266 9.969777 -14.785672 3.853935 -64.753120 -21.313797 47.448391 -79.432793 6.741812 22.110901 8.524705 12.647240 -15.022839 -4.049711 8.641859 2.072876 80.685104 55.193684 27.452986 72.514526 -8.797104 18.357687 -8.534408 -12.637552 34.154152 -67.060699 28.271746 -10.605081 94.788994 1.869280 -9.804810 -2.723191 -12.643262 -4.379603 -66.421448 -21.161524 5.321724 96.916931 -2.205941 9.789698 -0.443570 6.975172 3.410694 
38.325977 28.640774 24.972784 -15.937266 -24.083694 -56.261353 65.660866 -6.030165 -0.644703 -20.763220 4.026438 0.583320 5.182430 -11.557898 -17.990644 26.303610 37.126511 -27.395269 9.969777 -14.785672 3.853935 -64.140091 -22.060251 48.827332 -79.198639 6.847079 21.974884 8.524705 12.647240 -14.886121 -4.049711 8.641859 2.072876 80.123047 54.837872 28.034370 72.524353 -8.794113 18.359056 -8.534408 -12.637552 34.036972 -67.046799 28.094654 -10.180317 95.411674 1.961956 -9.781943 -3.402631 -12.212729 -4.455393 -66.422104 -21.434895 5.666655 97.295937 -2.264246 9.787807 0.701237 8.437162 3.323001 
38.253616 28.595348 25.054861 -16.028017 -24.101290 -56.277725 65.296890 -6.056016 -0.331430 -20.607029 3.947968 0.664060 5.044102 -11.708184 -18.129505 26.115038 37.262207 -27.723398 9.969777 -14.785672 3.853935 -63.661125 -22.474207 50.381763 -78.950066 6.949957 21.828520 8.524705 12.647240 -15.169324 -4.049711 8.641859 2.072876 79.562241 54.031235 28.450356 72.906639 -8.722032 18.551731 -8.534408 -12.637552 34.027203 -66.933296 27.907484 -9.717334 95.819511 2.024978 -9.788909 -4.172177 -11.716644 -4.551187 -66.346222 -21.777184 5.705052 97.655975 -2.314571 9.776145 1.335975 10.368133 3.325868 
38.177177 28.534889 25.141006 -16.136551 -24.154139 -56.151600 65.077019 -5.957423 -0.289773 -20.763313 4.008344 0.652073 5.246268 -11.879954 -18.127892 25.801619 37.370598 -27.722107 9.969777 -14.785672 3.853935 -63.339916 -22.503891 51.781750 -78.731117 7.041303 21.704731 8.524705 12.647240 -15.638075 -4.049711 8.641859 2.072876 79.186249 52.873241 28.888927 73.546722 -8.595814 18.883722 -8.534408 -12.637552 33.978374 -66.728165 27.646500 -9.218424 96.052002 2.069973 -9.798145 -5.562068 -11.493655 -4.778532 -66.160889 -22.138638 5.756172 97.879501 -2.343594 9.780699 1.211993 12.145654 3.434272 
38.114208 28.483198 25.231228 -16.194864 -24.118101 -56.085777 64.854935 -5.862449 -0.224476 -20.949196 4.030196 0.648391 5.431411 -12.251559 -18.070961 25.492188 37.772896 -27.535408 9.969777 -14.785672 3.853935 -63.007500 -22.455973 53.287521 -78.548744 7.113995 21.594381 8.524705 12.647240 -16.067760 -4.049711 8.641859 2.072876 79.070900 51.693565 29.173996 74.285690 -8.434443 19.265627 -8.534408 -12.637552 33.617046 -66.513893 27.331450 -8.690603 96.081963 2.068710 -9.781506 -7.256773 -12.523264 -5.314293 -66.111137 -22.450998 5.915201 97.927979 -2.353292 9.781209 0.541987 13.188379 3.668383 
38.107948 28.527681 25.287615 -16.236740 -24.057896 -56.175320 64.649399 -5.840961 -0.346521 -21.144585 4.110207 0.622744 5.418894 -12.704989 -17.948833 25.440067 38.094345 -27.194355 9.969777 -14.785672 3.853935 -62.934299 -22.228508 54.230171 -78.328613 7.202434 21.469135 8.524705 12.647240 -16.243542 -4.049711 8.641859 2.072876 79.201080 50.463505 29.646944 75.180832 -8.214260 19.737072 -8.534408 -12.637552 33.197124 -65.904587 27.040064 -7.967460 95.741425 2.020177 -9.791073 -7.247093 -14.907104 -5.798388 -66.306694 -22.372772 5.451596 97.481720 -2.283905 9.763700 -1.315395 13.542529 4.140952 
38.065659 28.547106 25.368122 -16.367567 -24.121191 -56.236099 64.623009 -5.845372 -0.557603 -21.418865 4.082585 0.565044 5.421998 -12.707612 -17.921959 25.121202 37.885429 -27.273293 9.969777 -14.785672 3.853935 -62.766575 -21.835295 54.775364 -78.144539 7.271912 21.359976 8.524705 12.647240 -15.755262 -4.049711 8.641859 2.072876 79.630234 49.033607 30.228058 76.286987 -7.904162 20.331491 -8.534408 -12.637552 32.484234 -65.296669 26.756163 -7.373963 95.314560 1.940894 -9.789402 -6.971933 -15.827330 -5.908223 -65.554665 -22.538584 5.144344 96.966072 -2.225604 9.760733 -2.906112 13.598453 4.534759 
37.954762 28.439342 25.489668 -16.565533 -24.287205 -56.087936 64.771538 -5.728246 -0.992562 -21.603315 4.441663 0.431625 5.199229 -12.973192 -17.853357 24.937969 37.696842 -27.242527 9.969777 -14.785672 3.853935 -62.950638 -21.556700 55.192780 -77.939392 7.346766 21.246119 8.524705 12.647240 -14.681043 -4.049711 8.641859 2.072876 79.940033 47.560398 30.880039 77.476067 -7.521546 20.994848 -8.534408 -12.637552 31.361189 -65.096176 26.357069 -7.244486 95.070961 1.921597 -9.790000 -5.411611 -17.814365 -5.890557 -63.621674 -23.241913 4.717003 96.791046 -2.186643 9.777391 -5.062056 14.168666 5.120589 
37.909645 28.379822 25.537598 -16.753983 -24.447296 -55.951965 64.999374 -5.746194 -0.713034 -21.467924 4.061598 0.503654 4.842803 -12.903355 -17.918297 24.513884 38.183281 -27.554274 9.969777 -14.785672 3.853935 -62.236977 -21.899715 56.485653 -77.774986 7.408814 21.158476 8.524705 12.647240 -13.294325 -4.049711 8.641859 2.072876 80.767990 46.659828 30.494623 78.350517 -7.198479 21.492929 -8.534408 -12.637552 30.062361 -64.742157 26.004704 -7.231272 94.779930 1.873143 -9.781036 -2.773715 -20.459230 -5.517615 -63.013031 -23.475327 4.463977 96.694107 -2.167268 9.775667 -6.233570 13.991473 5.369802 
37.846058 28.284277 25.588661 -16.926329 -24.567755 -55.996765 65.255714 -5.950053 -0.930642 -21.427267 4.383028 0.486183 4.495764 -12.716309 -17.872749 23.666601 37.666656 -27.858761 9.969777 -14.785672 3.853935 -62.310566 -21.772608 56.847214 -77.872810 7.373507 21.209398 8.524705 12.647240 -12.327528 -4.049711 8.641859 2.072876 80.858841 47.056870 30.992912 78.031830 -7.320478 21.307068 -8.534408 -12.637552 29.661968 -64.672165 25.887138 -7.273261 94.818619 1.882813 -9.782062 -2.286722 -20.869711 -5.400947 -62.989185 -23.698835 4.423824 97.044144 -2.225642 9.763638 -6.318690 14.160371 5.416036 
37.801888 28.252321 25.644737 -17.044996 -24.618708 -56.019680 65.446152 -6.008804 -1.055386 -21.426651 4.519037 0.462215 4.192764 -12.540715 -17.892550 22.872141 37.083569 -28.283510 9.969777 -14.785672 3.853935 -62.357822 -21.530500 56.930973 -77.978867 7.332512 21.261786 8.524705 12.647240 -11.946668 -4.049711 8.641859 2.072876 80.856850 47.526863 31.584421 77.680740 -7.447890 21.108009 -8.534408 -12.637552 29.486187 -64.647858 25.683464 -7.848472 95.061211 1.911821 -9.799829 -3.664353 -19.731129 -5.689796 -63.257278 -24.070969 4.306205 97.470520 -2.304628 9.780326 -5.735836 14.525675 5.344066 
37.794998 28.295242 25.687653 -17.155338 -24.673458 -55.984371 65.625626 -5.963470 -1.014883 -21.544455 4.461752 0.464766 4.090701 -12.564976 -17.930002 22.181524 36.877953 -28.581799 9.969777 -14.785672 3.853935 -62.273972 -21.294476 57.049294 -77.940674 7.348168 21.247089 8.524705 12.647240 -12.141981 -4.049711 8.641859 2.072876 80.985001 47.785099 31.735060 77.268692 -7.590680 20.872381 -8.534408 -12.637552 27.708841 -64.457886 25.350378 -8.232494 95.187714 1.931229 -9.794240 -4.534723 -18.750845 -5.780915 -63.356499 -24.081339 4.368192 97.733734 -2.324247 9.777805 -5.721083 14.405842 5.340680 
37.785286 28.310591 25.723053 -17.330090 -24.784809 -56.173290 65.993439 -6.180117 -0.844074 -21.829071 4.320714 0.526578 4.286461 -12.539493 -18.038580 21.115726 37.019722 -29.022509 9.969777 -14.785672 3.853935 -61.962582 -21.026928 57.516888 -77.930832 7.351238 21.236177 8.524705 12.647240 -12.376356 -4.049711 8.641859 2.072876 81.079285 47.623974 31.554264 77.159988 -7.627364 20.820229 -8.534408 -12.637552 24.456890 -64.032372 25.371000 -8.339990 95.197479 1.931224 -9.794650 -4.618692 -18.274235 -5.724473 -63.355549 -23.915058 4.427907 97.870056 -2.333866 9.781620 -5.744916 13.994058 5.258533 
37.753330 28.289602 25.755945 -17.540228 -24.925093 -56.611027 66.551659 -6.700981 -0.687745 -22.230947 4.213585 0.638414 4.426880 -12.426464 -18.183834 20.148829 37.195190 -29.545115 9.969777 -14.785672 3.853935 -61.581047 -20.836647 58.156952 -77.950562 7.344450 21.248260 8.524705 12.647240 -12.347058 -4.049711 8.641859 2.072876 81.286003 47.858871 31.218241 76.635757 -7.797881 20.530869 -8.534408 -12.637552 22.122908 -63.499680 25.681984 -8.240606 95.168190 1.940965 -9.783190 -4.131469 -18.400751 -5.597974 -63.434685 -23.593159 4.653100 97.976784 -2.353257 9.782999 -5.512374 13.603320 5.126998 
37.711044 28.265480 25.783512 -17.757366 -25.088488 -56.874199 67.012581 -7.197642 -0.716253 -22.298622 4.453109 0.719772 4.210099 -12.331758 -18.257519 19.528223 36.952732 -29.956577 9.969777 -14.785672 3.853935 -61.524513 -20.941912 58.616943 -77.851730 7.378788 21.197599 8.524705 12.647240 -12.307996 -4.049711 8.641859 2.072876 81.856102 48.918400 32.032490 75.383224 -8.161386 19.850119 -8.534408 -12.637552 21.546734 -63.046204 25.927580 -8.121849 95.081062 1.911845 -9.791163 -3.429818 -18.724758 -5.438253 -63.561234 -23.485575 4.778117 98.161613 -2.382552 9.776063 -5.072845 13.444500 4.996884 
37.668121 28.209719 25.789778 -17.985552 -25.300806 -56.876003 67.660080 -7.463319 -0.735624 -22.455156 4.505790 0.744192 4.105848 -12.326035 -18.312685 18.883350 36.975391 -30.253914 9.969777 -14.785672 3.853935 -61.361477 -21.158419 59.105808 -77.658264 7.450830 21.085505 8.524705 12.647240 -12.327528 -4.049711 8.641859 2.072876 81.203697 47.363510 32.529198 76.555984 -7.822052 20.482319 -8.534408 -12.637552 21.214703 -62.549644 26.042330 -7.962939 94.973381 1.911723 -9.796270 -3.434703 -18.926506 -5.470460 -63.627140 -23.533703 4.827909 98.423889 -2.421299 9.780088 -4.410395 13.088005 4.806204 
